<svg xmlns="http://www.w3.org/2000/svg" xml:space="preserve" style="enable-background:new 0 0 1920 1500" viewBox="390 265 1150 930"><style>.st0{display:none}.st1{display:inline;fill:#335252;stroke:#1d1d1b;stroke-miterlimit:10}.st4{fill:#fff}.st5,.st6{fill:none;stroke:#eda415;stroke-width:20;stroke-miterlimit:10}.st6{stroke:#fff}.st8{display:inline;fill:#fff}.st9{font-family:&quot;TwCenMT-Regular&quot;}.st10{font-size:320px}.st11{letter-spacing:16}.st12,.st13,.st14{display:inline;fill:none}.st12{stroke:#eda415;stroke-width:14;stroke-miterlimit:10}.st13,.st14{stroke-width:20}.st13{stroke:#eda415;stroke-miterlimit:10}.st14{stroke:#fff}.st14,.st15,.st16{stroke-miterlimit:10}.st15{display:inline;fill:none;stroke:#eda415;stroke-width:30}.st16{fill:#e4eaea;stroke:#1d1d1b}</style><switch><g><g id="черепаха_1_"><g id="черепаха"><path d="M1064.66 352.18c0 79.01-44.26 101.98-98.86 101.98s-98.86-22.97-98.86-101.98 44.26-143.06 98.86-143.06c54.6.01 98.86 64.06 98.86 143.06z" style="fill:none;stroke:#eda415;stroke-width:14;stroke-miterlimit:10"/><ellipse cx="913.58" cy="362.01" class="st4" rx="19.19" ry="30.37"/><ellipse cx="1015.81" cy="362.01" class="st4" rx="19.19" ry="30.37"/><path d="m1000.34 1126.5-34.87 94.52-34.21-95.16zM1515.59 756.16c-19.08-50.88-50.98-96.1-93.07-130.48-22.22-18.16-42.43-29.49-56.98-36.55-59.6-28.93-140.01-42.38-148.33-24.36-2.61 5.66 2.06 14.03 9.9 23.04 17.44 20.05 32.29 42.22 43.54 66.29 4 8.57 7.14 15.45 7.74 17.25 1.91 5.69 17.89 67.2 17.89 67.2-2.56 9.45-2.07 17.04 0 23.21 14.95 44.48 122.54 46.14 187.42 42.93 24.33-1.21 40.44-25.73 31.89-48.53zM674.86 1067.71c-13.68 23.99-55.37 124.46-28.98 149.04 23.82 22.19 122.35-18.27 160.98-63.43 10.12-11.83 57.42-62.57 30.72-76.92-54.69-29.38-96.1-44.06-107.38-66.79-10.4-20.96-37.29 26.46-55.34 58.1zM415.08 756.16c19.08-50.88 50.98-96.1 93.07-130.48 22.22-18.16 42.43-29.49 56.98-36.55 59.6-28.93 140.01-42.38 148.33-24.36 2.61 5.66-2.06 14.03-9.9 23.04-17.44 20.05-32.29 42.22-43.54 66.29-4 8.57-7.14 15.45-7.74 17.25-1.91 5.69-17.89 67.2-17.89 67.2 2.56 9.45 2.07 17.04 0 23.21-14.95 44.48-122.54 46.14-187.42 42.93-24.33-1.21-40.44-25.73-31.89-48.53z" class="st5"/><path d="m895.32 654.2-93.7-160.24" class="st6"/><path d="M1264.92 1063.71c13.68 23.99 55.37 124.46 28.98 149.04-23.82 22.19-122.35-18.27-160.98-63.43-10.12-11.83-57.42-62.57-30.72-76.92 54.69-29.38 96.1-44.06 107.38-66.79 10.41-20.96 37.29 26.46 55.34 58.1z" class="st5"/><path d="m1039.09 654.2 93.7-160.24M895.32 902.14l-93.7 160.25M1039.09 902.14l93.7 160.25M824.84 776.28l-187.53.35M1291.29 782.67l-187.53-1.56M1036.28 898.36H895.32l-70.48-122.08 70.48-122.08h140.96l70.49 122.08z" class="st6"/><circle cx="965.8" cy="778.54" r="328.49" style="fill:none;stroke:#eda415;stroke-width:30;stroke-miterlimit:10"/></g></g></g></switch></svg>